# xmcd
#
# Track frame offsets:
#	150
#	17902
#	30588
#	45908
#	67141
#	88999
#	100817
#	115166
#	137454
#	160835
#	175113
#	191566
#	226134
#	243096
#	263927
#
# Disc length: 3786 seconds
#
# Revision: 1
# Processed by: cddbd v1.5.2PL0 Copyright (c) Steve Scherf et al.
# Submitted via: audiograbber 1.83.01
#
DISCID=bd0ec80f
DTITLE=Chris Kramer - Way Back Home
DYEAR=2018
DGENRE=Blues
TTITLE0=Jukebox
TTITLE1=Ain't nobody at home
TTITLE2=Beatbox 'n' boogie
TTITLE3=Ashes to ashes
TTITLE4=Lawyer clark blues
TTITLE5=Happy birthday
TTITLE6=Just a little boy
TTITLE7=Last man riding
TTITLE8=Hot summer day
TTITLE9=Hippin 'n' hoppin' the blues
TTITLE10=Deep in the ground
TTITLE11=Go with the flow
TTITLE12=Erst hatt' ich kein glück
TTITLE13=Der wolkenmacher
TTITLE14=Tallahatchie flats
EXTD=
EXTT0=
EXTT1=
EXTT2=
EXTT3=
EXTT4=
EXTT5=
EXTT6=
EXTT7=
EXTT8=
EXTT9=
EXTT10=
EXTT11=
EXTT12=
EXTT13=
EXTT14=
PLAYORDER=
